<?xml version="1.0" encoding="UTF-8"?>
<!DOCTYPE svg PUBLIC "-//W3C//DTD SVG 1.1//EN" "http://www.w3.org/Graphics/SVG/1.1/DTD/svg11.dtd">
<svg version="1.1" xmlns="http://www.w3.org/2000/svg" xmlns:xlink="http://www.w3.org/1999/xlink" x="0" y="0" width="189" height="189" viewBox="0, 0, 189, 189">
  <g id="Layer_1">
    <g>
      <path d="M95,188.5 C43.361,188.5 1.5,146.639 1.5,95 C1.5,43.361 43.361,1.5 95,1.5 C146.639,1.5 188.5,43.361 188.5,95 C188.5,146.639 146.639,188.5 95,188.5 z" fill="#5731F2"/>
      <path d="M95,188.5 C43.361,188.5 1.5,146.639 1.5,95 C1.5,43.361 43.361,1.5 95,1.5 C146.639,1.5 188.5,43.361 188.5,95 C188.5,146.639 146.639,188.5 95,188.5 z" fill-opacity="0" stroke="#000000" stroke-width="1"/>
    </g>
    <text transform="matrix(1, 0, 0, 1, 94.5, 94.5)">
      <tspan x="-55.332" y="26" font-family="HelveticaNeue-Bold" font-size="72" fill="#FFFFFF">GO</tspan>
    </text>
  </g>
</svg>
